# xmcd
#
# Track frame offsets: 
#        150
#        15965
#        37632
#        60230
#        81465
#        82155
#        101820
#        114287
#        129527
#        152910
#        179917
#        195817
#        199220
#        209987
#        225915
#        242520
#        258415
#        275737
#        295282
#        308342
#
# Disc length: 4162 seconds
#
# Revision: 0
# Processed by: cddbd v1.5.2PL0 Copyright (c) Steve Scherf et al.
# Submitted via: ExactAudioCopy v0.99pb5
#
DISCID=11104014
DTITLE=Sweet  - Platinum Rare
DYEAR=1900
DGENRE=
TTITLE0=01.  Yesterday's Hero (Unreleased Version)
TTITLE1=02. Log One (That Girl) (Brian's Last Recordings)
TTITLE2=03. Cockroach (Demo Version)
TTITLE3=04. 4th July (Demo Version)
TTITLE4=05. Harold Wonders Why_ (Unreleased Version)
TTITLE5=06. Falling In Love (Home Demo)
TTITLE6=07. Two Into One (Home Demo)
TTITLE7=08. New Shoes (Home Demo)
TTITLE8=09. Fire Engine (Unreleased Version)
TTITLE9=10. Mother Earth (Demo Version)
TTITLE10=11. Play All Night (Brian's Last Recordings)
TTITLE11=12. Scratch 'N' Sniff_ (Unreleased Version)
TTITLE12=13. You Don't Care (Home Demo)
TTITLE13=14. Fountain (Live Rehearsal)
TTITLE14=15. You're Not Wrong For Loving Me (Live Rehearsal)
TTITLE15=16. Strong Love (Early Version)
TTITLE16=17. Call Me (Give Me Your Love) (Brian's Demo Version)
TTITLE17=18. Where Do We Go From Here (Home Demo)
TTITLE18=19. Galaxy (Demo)
TTITLE19=20. Galaxy [TV Theme]
EXTD=
EXTT0=
EXTT1=
EXTT2=
EXTT3=
EXTT4=
EXTT5=
EXTT6=
EXTT7=
EXTT8=
EXTT9=
EXTT10=
EXTT11=
EXTT12=
EXTT13=
EXTT14=
EXTT15=
EXTT16=
EXTT17=
EXTT18=
EXTT19=
PLAYORDER=
